<svg id="Calque_6" data-name="Calque 6" xmlns="http://www.w3.org/2000/svg" viewBox="0 0 147.5 149.05"><defs><style>.cls-1{fill:#4a4861;}.cls-2{fill:none;stroke:#4a4861;stroke-linecap:round;stroke-miterlimit:10;stroke-width:3px;}</style></defs><title>design</title><g id="Calque_5" data-name="Calque 5"><path class="cls-1" d="M515.56,665.53l-1.66-3.16a4.35,4.35,0,0,0-3.27-2.5l-3.39-.89s-3.34-1.17-1.32-7l11.59-14.42,16.37,13.15-11.59,14.42C516.48,668.17,515.56,665.53,515.56,665.53Z" transform="translate(-463.85 -556.45)"/><path class="cls-1" d="M583.94,568.14l3.47,2.79c3.56,2.87,1.89,7.66-1,11.23l-49,64.11-16.37-13.16,52.08-61.6C576.05,567.94,580.38,565.28,583.94,568.14Z" transform="translate(-463.85 -556.45)"/><rect class="cls-1" x="503.2" y="663.04" width="5" height="12" rx="2.5" transform="translate(66.82 -725.7) rotate(38.79)"/><path class="cls-1" d="M589.69,557.15h3.82a2.73,2.73,0,0,1,2.73,2.73v7.3a0,0,0,0,1,0,0H587a0,0,0,0,1,0,0v-7.3a2.73,2.73,0,0,1,2.73-2.73Z" transform="translate(18.81 -803.09) rotate(38.79)"/><line class="cls-2" x1="49.01" y1="118.72" x2="107.33" y2="118.72"/><g id="Calque_2_-_copie" data-name="Calque 2 - copie"><path class="cls-1" d="M569.94,576.84a63.78,63.78,0,0,1,12.62,9.77l6.07-8.05a74.1,74.1,0,0,0-12-9.38Z" transform="translate(-463.85 -556.45)"/><path class="cls-1" d="M595.5,586.11l0,0-6.26,8.31a63.63,63.63,0,1,1-28.78-22.16l.19.08,6.91-8a73.88,73.88,0,1,0,28,21.76Z" transform="translate(-463.85 -556.45)"/></g></g></svg>