<svg id="Calque_6" data-name="Calque 6" xmlns="http://www.w3.org/2000/svg" viewBox="0 0 147.78 149.28"><defs><style>.cls-1,.cls-2{fill:#fff;}.cls-2{stroke:#fff;stroke-linecap:round;stroke-miterlimit:10;stroke-width:3px;}</style></defs><title>design_blanc</title><g id="Calque_5" data-name="Calque 5"><path class="cls-1" d="M51.71,109.08l-1.66-3.16a4.34,4.34,0,0,0-3.27-2.5l-3.39-.89s-3.34-1.17-1.32-7L53.66,81.11,70,94.26,58.44,108.68C52.63,111.72,51.71,109.08,51.71,109.08Z" transform="translate(0.2 -0.02)"/><path class="cls-1" d="M120.09,11.69l3.47,2.79c3.56,2.87,1.89,7.66-1,11.23l-49,64.11L57.19,76.66l52.08-61.6C112.2,11.49,116.53,8.83,120.09,11.69Z" transform="translate(0.2 -0.02)"/><path class="cls-1" d="M45.61,107.91h0a2.5,2.5,0,0,1,.39,3.51l-4.39,5.46a2.49,2.49,0,0,1-3.51.38h0a2.5,2.5,0,0,1-.39-3.51l4.39-5.46A2.5,2.5,0,0,1,45.61,107.91Z" transform="translate(0.2 -0.02)"/><path class="cls-1" d="M129.41.6l3,2.39a2.72,2.72,0,0,1,.42,3.84l-4.57,5.69h0L121,6.73h0L125.6,1a2.73,2.73,0,0,1,3.84-.41Z" transform="translate(0.2 -0.02)"/><line class="cls-2" x1="49.21" y1="118.7" x2="107.53" y2="118.7"/><g id="Calque_2_-_copie" data-name="Calque 2 - copie"><path class="cls-1" d="M106.09,20.39a64,64,0,0,1,12.62,9.77l6.07-8a74.54,74.54,0,0,0-12-9.38Z" transform="translate(0.2 -0.02)"/><path class="cls-1" d="M131.65,29.66h0L125.39,38A63.63,63.63,0,1,1,96.61,15.81l.19.08,6.91-8a73.88,73.88,0,1,0,28,21.76Z" transform="translate(0.2 -0.02)"/></g></g></svg>