<svg id="Calque_4" data-name="Calque 4" xmlns="http://www.w3.org/2000/svg" viewBox="0 0 147.51 147.48"><defs><style>.cls-1{fill:#4a4861;}.cls-2{fill:#fff;}</style></defs><title>perso_blanc</title><path class="cls-1" d="M19.37,34.45a27.25,27.25,0,0,0,.52,5.25A63.88,63.88,0,0,1,61.41,11.21,27.3,27.3,0,0,0,46.85,7a27.71,27.71,0,0,0-5.6.57,73.81,73.81,0,0,0-17.45,12A27.24,27.24,0,0,0,19.37,34.45Z" transform="translate(0 0)"/><path class="cls-1" d="M16.4,101.58c-1.5,5.28-2.65,10.11-3.46,13.84.82,1.2,1.69,2.37,2.58,3.51H28.85A64.14,64.14,0,0,1,16.4,101.58Z" transform="translate(0 0)"/><path class="cls-2" d="M73.75,0a74.22,74.22,0,0,0-16,1.77,34.68,34.68,0,0,1,13.42,8.3c.86,0,1.73-.07,2.61-.07A63.75,63.75,0,1,1,37.22,125.93H21.68A73.74,73.74,0,1,0,73.75,0Z" transform="translate(0 0)"/><path class="cls-2" d="M12.36,90.9A63.6,63.6,0,0,1,15.3,48.32a34.32,34.32,0,0,1-2.93-13.87c0-.54,0-1.07.05-1.61a73.59,73.59,0,0,0-4.65,73.82C9,101.94,10.47,96.5,12.36,90.9Z" transform="translate(0 0)"/><path class="cls-2" d="M81.28,34.45a34.5,34.5,0,0,1-9.07,23.26,23,23,0,0,0,9,9.16,42.05,42.05,0,0,0-6,8.73c6,12.59,9.88,27.11,12,36.49h34S116,80.15,103.65,66.87A23,23,0,0,0,83.21,25.66a23.3,23.3,0,0,0-2.69,1.57A34.31,34.31,0,0,1,81.28,34.45Z" transform="translate(0 0)"/><path class="cls-2" d="M46.85,7A27.45,27.45,0,0,0,33.42,58.39l3.88,2.18-3,3.26c-12.83,13.8-19.85,44.12-22,55.1H81.53c-2.2-11-9.22-41.31-22-55.1l-3-3.26,3.88-2.18A27.45,27.45,0,0,0,46.85,7Z" transform="translate(0 0)"/></svg>