<svg id="Calque_4" data-name="Calque 4" xmlns="http://www.w3.org/2000/svg" viewBox="0 0 147.5 147.5"><defs><style>.cls-1{fill:#4a4861;}</style></defs><title>perso</title><path class="cls-1" d="M728.52,592.45a26.94,26.94,0,0,0,.52,5.25,63.9,63.9,0,0,1,41.52-28.49A27.31,27.31,0,0,0,756,565a27.92,27.92,0,0,0-5.6.57,74.07,74.07,0,0,0-17.45,12A27.29,27.29,0,0,0,728.52,592.45Z" transform="translate(-709.15 -558)"/><path class="cls-1" d="M725.55,659.58c-1.5,5.28-2.65,10.11-3.46,13.84.82,1.2,1.69,2.37,2.58,3.51H738A64,64,0,0,1,725.55,659.58Z" transform="translate(-709.15 -558)"/><path class="cls-1" d="M782.9,558a74.22,74.22,0,0,0-16,1.77,34.61,34.61,0,0,1,13.42,8.3c.86,0,1.73-.07,2.61-.07a63.75,63.75,0,1,1-36.56,115.93H730.83A73.74,73.74,0,1,0,782.9,558Z" transform="translate(-709.15 -558)"/><path class="cls-1" d="M721.51,648.9a63.59,63.59,0,0,1,2.94-42.58,34.33,34.33,0,0,1-2.93-13.87c0-.54,0-1.07.05-1.61a73.58,73.58,0,0,0-4.65,73.82C718.1,659.94,719.62,654.5,721.51,648.9Z" transform="translate(-709.15 -558)"/><path class="cls-1" d="M790.43,592.45a34.46,34.46,0,0,1-9.07,23.26,23,23,0,0,0,9,9.16,42,42,0,0,0-6,8.73c6,12.59,9.88,27.11,12,36.49h34s-5.22-31.94-17.56-45.22a23,23,0,1,0-23.13-39.64A34.42,34.42,0,0,1,790.43,592.45Z" transform="translate(-709.15 -558)"/><path class="cls-1" d="M756,565a27.45,27.45,0,0,0-13.43,51.39l3.88,2.18-3,3.26c-12.83,13.8-19.85,44.12-22,55.1h69.23c-2.2-11-9.22-41.31-22-55.1l-3-3.26,3.88-2.18A27.45,27.45,0,0,0,756,565Z" transform="translate(-709.15 -558)"/></svg>